<?xml version="1.0" encoding="utf-8" standalone="no"?>
<!DOCTYPE svg PUBLIC "-//W3C//DTD SVG 1.1//EN"
  "http://www.w3.org/Graphics/SVG/1.1/DTD/svg11.dtd">
<!-- Created with matplotlib (https://matplotlib.org/) -->
<svg height="345.6pt" version="1.1" viewBox="0 0 460.8 345.6" width="460.8pt" xmlns="http://www.w3.org/2000/svg" xmlns:xlink="http://www.w3.org/1999/xlink">
 <defs>
  <style type="text/css">
*{stroke-linecap:butt;stroke-linejoin:round;}
  </style>
 </defs>
 <g id="figure_1">
  <g id="patch_1">
   <path d="M 0 345.6 
L 460.8 345.6 
L 460.8 0 
L 0 0 
z
" style="fill:#ffffff;"/>
  </g>
  <g id="axes_1">
   <g id="patch_2">
    <path d="M 57.6 307.584 
L 414.72 307.584 
L 414.72 41.472 
L 57.6 41.472 
z
" style="fill:#ffffff;"/>
   </g>
   <g id="matplotlib.axis_1">
    <g id="xtick_1">
     <g id="line2d_1">
      <defs>
       <path d="M 0 0 
L 0 3.5 
" id="mc82e112b83" style="stroke:#000000;stroke-width:0.8;"/>
      </defs>
      <g>
       <use style="stroke:#000000;stroke-width:0.8;" x="73.832727" xlink:href="#mc82e112b83" y="307.584"/>
      </g>
     </g>
     <g id="text_1">
      <!-- 0 -->
      <defs>
       <path d="M 31.78125 66.40625 
Q 24.171875 66.40625 20.328125 58.90625 
Q 16.5 51.421875 16.5 36.375 
Q 16.5 21.390625 20.328125 13.890625 
Q 24.171875 6.390625 31.78125 6.390625 
Q 39.453125 6.390625 43.28125 13.890625 
Q 47.125 21.390625 47.125 36.375 
Q 47.125 51.421875 43.28125 58.90625 
Q 39.453125 66.40625 31.78125 66.40625 
z
M 31.78125 74.21875 
Q 44.046875 74.21875 50.515625 64.515625 
Q 56.984375 54.828125 56.984375 36.375 
Q 56.984375 17.96875 50.515625 8.265625 
Q 44.046875 -1.421875 31.78125 -1.421875 
Q 19.53125 -1.421875 13.0625 8.265625 
Q 6.59375 17.96875 6.59375 36.375 
Q 6.59375 54.828125 13.0625 64.515625 
Q 19.53125 74.21875 31.78125 74.21875 
z
" id="DejaVuSans-48"/>
      </defs>
      <g transform="translate(70.651477 322.182437)scale(0.1 -0.1)">
       <use xlink:href="#DejaVuSans-48"/>
      </g>
     </g>
    </g>
    <g id="xtick_2">
     <g id="line2d_2">
      <g>
       <use style="stroke:#000000;stroke-width:0.8;" x="138.763636" xlink:href="#mc82e112b83" y="307.584"/>
      </g>
     </g>
     <g id="text_2">
      <!-- 100 -->
      <defs>
       <path d="M 12.40625 8.296875 
L 28.515625 8.296875 
L 28.515625 63.921875 
L 10.984375 60.40625 
L 10.984375 69.390625 
L 28.421875 72.90625 
L 38.28125 72.90625 
L 38.28125 8.296875 
L 54.390625 8.296875 
L 54.390625 0 
L 12.40625 0 
z
" id="DejaVuSans-49"/>
      </defs>
      <g transform="translate(129.219886 322.182437)scale(0.1 -0.1)">
       <use xlink:href="#DejaVuSans-49"/>
       <use x="63.623047" xlink:href="#DejaVuSans-48"/>
       <use x="127.246094" xlink:href="#DejaVuSans-48"/>
      </g>
     </g>
    </g>
    <g id="xtick_3">
     <g id="line2d_3">
      <g>
       <use style="stroke:#000000;stroke-width:0.8;" x="203.694545" xlink:href="#mc82e112b83" y="307.584"/>
      </g>
     </g>
     <g id="text_3">
      <!-- 200 -->
      <defs>
       <path d="M 19.1875 8.296875 
L 53.609375 8.296875 
L 53.609375 0 
L 7.328125 0 
L 7.328125 8.296875 
Q 12.9375 14.109375 22.625 23.890625 
Q 32.328125 33.6875 34.8125 36.53125 
Q 39.546875 41.84375 41.421875 45.53125 
Q 43.3125 49.21875 43.3125 52.78125 
Q 43.3125 58.59375 39.234375 62.25 
Q 35.15625 65.921875 28.609375 65.921875 
Q 23.96875 65.921875 18.8125 64.3125 
Q 13.671875 62.703125 7.8125 59.421875 
L 7.8125 69.390625 
Q 13.765625 71.78125 18.9375 73 
Q 24.125 74.21875 28.421875 74.21875 
Q 39.75 74.21875 46.484375 68.546875 
Q 53.21875 62.890625 53.21875 53.421875 
Q 53.21875 48.921875 51.53125 44.890625 
Q 49.859375 40.875 45.40625 35.40625 
Q 44.1875 33.984375 37.640625 27.21875 
Q 31.109375 20.453125 19.1875 8.296875 
z
" id="DejaVuSans-50"/>
      </defs>
      <g transform="translate(194.150795 322.182437)scale(0.1 -0.1)">
       <use xlink:href="#DejaVuSans-50"/>
       <use x="63.623047" xlink:href="#DejaVuSans-48"/>
       <use x="127.246094" xlink:href="#DejaVuSans-48"/>
      </g>
     </g>
    </g>
    <g id="xtick_4">
     <g id="line2d_4">
      <g>
       <use style="stroke:#000000;stroke-width:0.8;" x="268.625455" xlink:href="#mc82e112b83" y="307.584"/>
      </g>
     </g>
     <g id="text_4">
      <!-- 300 -->
      <defs>
       <path d="M 40.578125 39.3125 
Q 47.65625 37.796875 51.625 33 
Q 55.609375 28.21875 55.609375 21.1875 
Q 55.609375 10.40625 48.1875 4.484375 
Q 40.765625 -1.421875 27.09375 -1.421875 
Q 22.515625 -1.421875 17.65625 -0.515625 
Q 12.796875 0.390625 7.625 2.203125 
L 7.625 11.71875 
Q 11.71875 9.328125 16.59375 8.109375 
Q 21.484375 6.890625 26.8125 6.890625 
Q 36.078125 6.890625 40.9375 10.546875 
Q 45.796875 14.203125 45.796875 21.1875 
Q 45.796875 27.640625 41.28125 31.265625 
Q 36.765625 34.90625 28.71875 34.90625 
L 20.21875 34.90625 
L 20.21875 43.015625 
L 29.109375 43.015625 
Q 36.375 43.015625 40.234375 45.921875 
Q 44.09375 48.828125 44.09375 54.296875 
Q 44.09375 59.90625 40.109375 62.90625 
Q 36.140625 65.921875 28.71875 65.921875 
Q 24.65625 65.921875 20.015625 65.03125 
Q 15.375 64.15625 9.8125 62.3125 
L 9.8125 71.09375 
Q 15.4375 72.65625 20.34375 73.4375 
Q 25.25 74.21875 29.59375 74.21875 
Q 40.828125 74.21875 47.359375 69.109375 
Q 53.90625 64.015625 53.90625 55.328125 
Q 53.90625 49.265625 50.4375 45.09375 
Q 46.96875 40.921875 40.578125 39.3125 
z
" id="DejaVuSans-51"/>
      </defs>
      <g transform="translate(259.081705 322.182437)scale(0.1 -0.1)">
       <use xlink:href="#DejaVuSans-51"/>
       <use x="63.623047" xlink:href="#DejaVuSans-48"/>
       <use x="127.246094" xlink:href="#DejaVuSans-48"/>
      </g>
     </g>
    </g>
    <g id="xtick_5">
     <g id="line2d_5">
      <g>
       <use style="stroke:#000000;stroke-width:0.8;" x="333.556364" xlink:href="#mc82e112b83" y="307.584"/>
      </g>
     </g>
     <g id="text_5">
      <!-- 400 -->
      <defs>
       <path d="M 37.796875 64.3125 
L 12.890625 25.390625 
L 37.796875 25.390625 
z
M 35.203125 72.90625 
L 47.609375 72.90625 
L 47.609375 25.390625 
L 58.015625 25.390625 
L 58.015625 17.1875 
L 47.609375 17.1875 
L 47.609375 0 
L 37.796875 0 
L 37.796875 17.1875 
L 4.890625 17.1875 
L 4.890625 26.703125 
z
" id="DejaVuSans-52"/>
      </defs>
      <g transform="translate(324.012614 322.182437)scale(0.1 -0.1)">
       <use xlink:href="#DejaVuSans-52"/>
       <use x="63.623047" xlink:href="#DejaVuSans-48"/>
       <use x="127.246094" xlink:href="#DejaVuSans-48"/>
      </g>
     </g>
    </g>
    <g id="xtick_6">
     <g id="line2d_6">
      <g>
       <use style="stroke:#000000;stroke-width:0.8;" x="398.487273" xlink:href="#mc82e112b83" y="307.584"/>
      </g>
     </g>
     <g id="text_6">
      <!-- 500 -->
      <defs>
       <path d="M 10.796875 72.90625 
L 49.515625 72.90625 
L 49.515625 64.59375 
L 19.828125 64.59375 
L 19.828125 46.734375 
Q 21.96875 47.46875 24.109375 47.828125 
Q 26.265625 48.1875 28.421875 48.1875 
Q 40.625 48.1875 47.75 41.5 
Q 54.890625 34.8125 54.890625 23.390625 
Q 54.890625 11.625 47.5625 5.09375 
Q 40.234375 -1.421875 26.90625 -1.421875 
Q 22.3125 -1.421875 17.546875 -0.640625 
Q 12.796875 0.140625 7.71875 1.703125 
L 7.71875 11.625 
Q 12.109375 9.234375 16.796875 8.0625 
Q 21.484375 6.890625 26.703125 6.890625 
Q 35.15625 6.890625 40.078125 11.328125 
Q 45.015625 15.765625 45.015625 23.390625 
Q 45.015625 31 40.078125 35.4375 
Q 35.15625 39.890625 26.703125 39.890625 
Q 22.75 39.890625 18.8125 39.015625 
Q 14.890625 38.140625 10.796875 36.28125 
z
" id="DejaVuSans-53"/>
      </defs>
      <g transform="translate(388.943523 322.182437)scale(0.1 -0.1)">
       <use xlink:href="#DejaVuSans-53"/>
       <use x="63.623047" xlink:href="#DejaVuSans-48"/>
       <use x="127.246094" xlink:href="#DejaVuSans-48"/>
      </g>
     </g>
    </g>
    <g id="text_7">
     <!-- Elapsed Time (min) -->
     <defs>
      <path d="M 9.8125 72.90625 
L 55.90625 72.90625 
L 55.90625 64.59375 
L 19.671875 64.59375 
L 19.671875 43.015625 
L 54.390625 43.015625 
L 54.390625 34.71875 
L 19.671875 34.71875 
L 19.671875 8.296875 
L 56.78125 8.296875 
L 56.78125 0 
L 9.8125 0 
z
" id="DejaVuSans-69"/>
      <path d="M 9.421875 75.984375 
L 18.40625 75.984375 
L 18.40625 0 
L 9.421875 0 
z
" id="DejaVuSans-108"/>
      <path d="M 34.28125 27.484375 
Q 23.390625 27.484375 19.1875 25 
Q 14.984375 22.515625 14.984375 16.5 
Q 14.984375 11.71875 18.140625 8.90625 
Q 21.296875 6.109375 26.703125 6.109375 
Q 34.1875 6.109375 38.703125 11.40625 
Q 43.21875 16.703125 43.21875 25.484375 
L 43.21875 27.484375 
z
M 52.203125 31.203125 
L 52.203125 0 
L 43.21875 0 
L 43.21875 8.296875 
Q 40.140625 3.328125 35.546875 0.953125 
Q 30.953125 -1.421875 24.3125 -1.421875 
Q 15.921875 -1.421875 10.953125 3.296875 
Q 6 8.015625 6 15.921875 
Q 6 25.140625 12.171875 29.828125 
Q 18.359375 34.515625 30.609375 34.515625 
L 43.21875 34.515625 
L 43.21875 35.40625 
Q 43.21875 41.609375 39.140625 45 
Q 35.0625 48.390625 27.6875 48.390625 
Q 23 48.390625 18.546875 47.265625 
Q 14.109375 46.140625 10.015625 43.890625 
L 10.015625 52.203125 
Q 14.9375 54.109375 19.578125 55.046875 
Q 24.21875 56 28.609375 56 
Q 40.484375 56 46.34375 49.84375 
Q 52.203125 43.703125 52.203125 31.203125 
z
" id="DejaVuSans-97"/>
      <path d="M 18.109375 8.203125 
L 18.109375 -20.796875 
L 9.078125 -20.796875 
L 9.078125 54.6875 
L 18.109375 54.6875 
L 18.109375 46.390625 
Q 20.953125 51.265625 25.265625 53.625 
Q 29.59375 56 35.59375 56 
Q 45.5625 56 51.78125 48.09375 
Q 58.015625 40.1875 58.015625 27.296875 
Q 58.015625 14.40625 51.78125 6.484375 
Q 45.5625 -1.421875 35.59375 -1.421875 
Q 29.59375 -1.421875 25.265625 0.953125 
Q 20.953125 3.328125 18.109375 8.203125 
z
M 48.6875 27.296875 
Q 48.6875 37.203125 44.609375 42.84375 
Q 40.53125 48.484375 33.40625 48.484375 
Q 26.265625 48.484375 22.1875 42.84375 
Q 18.109375 37.203125 18.109375 27.296875 
Q 18.109375 17.390625 22.1875 11.75 
Q 26.265625 6.109375 33.40625 6.109375 
Q 40.53125 6.109375 44.609375 11.75 
Q 48.6875 17.390625 48.6875 27.296875 
z
" id="DejaVuSans-112"/>
      <path d="M 44.28125 53.078125 
L 44.28125 44.578125 
Q 40.484375 46.53125 36.375 47.5 
Q 32.28125 48.484375 27.875 48.484375 
Q 21.1875 48.484375 17.84375 46.4375 
Q 14.5 44.390625 14.5 40.28125 
Q 14.5 37.15625 16.890625 35.375 
Q 19.28125 33.59375 26.515625 31.984375 
L 29.59375 31.296875 
Q 39.15625 29.25 43.1875 25.515625 
Q 47.21875 21.78125 47.21875 15.09375 
Q 47.21875 7.46875 41.1875 3.015625 
Q 35.15625 -1.421875 24.609375 -1.421875 
Q 20.21875 -1.421875 15.453125 -0.5625 
Q 10.6875 0.296875 5.421875 2 
L 5.421875 11.28125 
Q 10.40625 8.6875 15.234375 7.390625 
Q 20.0625 6.109375 24.8125 6.109375 
Q 31.15625 6.109375 34.5625 8.28125 
Q 37.984375 10.453125 37.984375 14.40625 
Q 37.984375 18.0625 35.515625 20.015625 
Q 33.0625 21.96875 24.703125 23.78125 
L 21.578125 24.515625 
Q 13.234375 26.265625 9.515625 29.90625 
Q 5.8125 33.546875 5.8125 39.890625 
Q 5.8125 47.609375 11.28125 51.796875 
Q 16.75 56 26.8125 56 
Q 31.78125 56 36.171875 55.265625 
Q 40.578125 54.546875 44.28125 53.078125 
z
" id="DejaVuSans-115"/>
      <path d="M 56.203125 29.59375 
L 56.203125 25.203125 
L 14.890625 25.203125 
Q 15.484375 15.921875 20.484375 11.0625 
Q 25.484375 6.203125 34.421875 6.203125 
Q 39.59375 6.203125 44.453125 7.46875 
Q 49.3125 8.734375 54.109375 11.28125 
L 54.109375 2.78125 
Q 49.265625 0.734375 44.1875 -0.34375 
Q 39.109375 -1.421875 33.890625 -1.421875 
Q 20.796875 -1.421875 13.15625 6.1875 
Q 5.515625 13.8125 5.515625 26.8125 
Q 5.515625 40.234375 12.765625 48.109375 
Q 20.015625 56 32.328125 56 
Q 43.359375 56 49.78125 48.890625 
Q 56.203125 41.796875 56.203125 29.59375 
z
M 47.21875 32.234375 
Q 47.125 39.59375 43.09375 43.984375 
Q 39.0625 48.390625 32.421875 48.390625 
Q 24.90625 48.390625 20.390625 44.140625 
Q 15.875 39.890625 15.1875 32.171875 
z
" id="DejaVuSans-101"/>
      <path d="M 45.40625 46.390625 
L 45.40625 75.984375 
L 54.390625 75.984375 
L 54.390625 0 
L 45.40625 0 
L 45.40625 8.203125 
Q 42.578125 3.328125 38.25 0.953125 
Q 33.9375 -1.421875 27.875 -1.421875 
Q 17.96875 -1.421875 11.734375 6.484375 
Q 5.515625 14.40625 5.515625 27.296875 
Q 5.515625 40.1875 11.734375 48.09375 
Q 17.96875 56 27.875 56 
Q 33.9375 56 38.25 53.625 
Q 42.578125 51.265625 45.40625 46.390625 
z
M 14.796875 27.296875 
Q 14.796875 17.390625 18.875 11.75 
Q 22.953125 6.109375 30.078125 6.109375 
Q 37.203125 6.109375 41.296875 11.75 
Q 45.40625 17.390625 45.40625 27.296875 
Q 45.40625 37.203125 41.296875 42.84375 
Q 37.203125 48.484375 30.078125 48.484375 
Q 22.953125 48.484375 18.875 42.84375 
Q 14.796875 37.203125 14.796875 27.296875 
z
" id="DejaVuSans-100"/>
      <path id="DejaVuSans-32"/>
      <path d="M -0.296875 72.90625 
L 61.375 72.90625 
L 61.375 64.59375 
L 35.5 64.59375 
L 35.5 0 
L 25.59375 0 
L 25.59375 64.59375 
L -0.296875 64.59375 
z
" id="DejaVuSans-84"/>
      <path d="M 9.421875 54.6875 
L 18.40625 54.6875 
L 18.40625 0 
L 9.421875 0 
z
M 9.421875 75.984375 
L 18.40625 75.984375 
L 18.40625 64.59375 
L 9.421875 64.59375 
z
" id="DejaVuSans-105"/>
      <path d="M 52 44.1875 
Q 55.375 50.25 60.0625 53.125 
Q 64.75 56 71.09375 56 
Q 79.640625 56 84.28125 50.015625 
Q 88.921875 44.046875 88.921875 33.015625 
L 88.921875 0 
L 79.890625 0 
L 79.890625 32.71875 
Q 79.890625 40.578125 77.09375 44.375 
Q 74.3125 48.1875 68.609375 48.1875 
Q 61.625 48.1875 57.5625 43.546875 
Q 53.515625 38.921875 53.515625 30.90625 
L 53.515625 0 
L 44.484375 0 
L 44.484375 32.71875 
Q 44.484375 40.625 41.703125 44.40625 
Q 38.921875 48.1875 33.109375 48.1875 
Q 26.21875 48.1875 22.15625 43.53125 
Q 18.109375 38.875 18.109375 30.90625 
L 18.109375 0 
L 9.078125 0 
L 9.078125 54.6875 
L 18.109375 54.6875 
L 18.109375 46.1875 
Q 21.1875 51.21875 25.484375 53.609375 
Q 29.78125 56 35.6875 56 
Q 41.65625 56 45.828125 52.96875 
Q 50 49.953125 52 44.1875 
z
" id="DejaVuSans-109"/>
      <path d="M 31 75.875 
Q 24.46875 64.65625 21.28125 53.65625 
Q 18.109375 42.671875 18.109375 31.390625 
Q 18.109375 20.125 21.3125 9.0625 
Q 24.515625 -2 31 -13.1875 
L 23.1875 -13.1875 
Q 15.875 -1.703125 12.234375 9.375 
Q 8.59375 20.453125 8.59375 31.390625 
Q 8.59375 42.28125 12.203125 53.3125 
Q 15.828125 64.359375 23.1875 75.875 
z
" id="DejaVuSans-40"/>
      <path d="M 54.890625 33.015625 
L 54.890625 0 
L 45.90625 0 
L 45.90625 32.71875 
Q 45.90625 40.484375 42.875 44.328125 
Q 39.84375 48.1875 33.796875 48.1875 
Q 26.515625 48.1875 22.3125 43.546875 
Q 18.109375 38.921875 18.109375 30.90625 
L 18.109375 0 
L 9.078125 0 
L 9.078125 54.6875 
L 18.109375 54.6875 
L 18.109375 46.1875 
Q 21.34375 51.125 25.703125 53.5625 
Q 30.078125 56 35.796875 56 
Q 45.21875 56 50.046875 50.171875 
Q 54.890625 44.34375 54.890625 33.015625 
z
" id="DejaVuSans-110"/>
      <path d="M 8.015625 75.875 
L 15.828125 75.875 
Q 23.140625 64.359375 26.78125 53.3125 
Q 30.421875 42.28125 30.421875 31.390625 
Q 30.421875 20.453125 26.78125 9.375 
Q 23.140625 -1.703125 15.828125 -13.1875 
L 8.015625 -13.1875 
Q 14.5 -2 17.703125 9.0625 
Q 20.90625 20.125 20.90625 31.390625 
Q 20.90625 42.671875 17.703125 53.65625 
Q 14.5 64.65625 8.015625 75.875 
z
" id="DejaVuSans-41"/>
     </defs>
     <g transform="translate(187.776406 335.860562)scale(0.1 -0.1)">
      <use xlink:href="#DejaVuSans-69"/>
      <use x="63.183594" xlink:href="#DejaVuSans-108"/>
      <use x="90.966797" xlink:href="#DejaVuSans-97"/>
      <use x="152.246094" xlink:href="#DejaVuSans-112"/>
      <use x="215.722656" xlink:href="#DejaVuSans-115"/>
      <use x="267.822266" xlink:href="#DejaVuSans-101"/>
      <use x="329.345703" xlink:href="#DejaVuSans-100"/>
      <use x="392.822266" xlink:href="#DejaVuSans-32"/>
      <use x="424.609375" xlink:href="#DejaVuSans-84"/>
      <use x="482.568359" xlink:href="#DejaVuSans-105"/>
      <use x="510.351562" xlink:href="#DejaVuSans-109"/>
      <use x="607.763672" xlink:href="#DejaVuSans-101"/>
      <use x="669.287109" xlink:href="#DejaVuSans-32"/>
      <use x="701.074219" xlink:href="#DejaVuSans-40"/>
      <use x="740.087891" xlink:href="#DejaVuSans-109"/>
      <use x="837.5" xlink:href="#DejaVuSans-105"/>
      <use x="865.283203" xlink:href="#DejaVuSans-110"/>
      <use x="928.662109" xlink:href="#DejaVuSans-41"/>
     </g>
    </g>
   </g>
   <g id="matplotlib.axis_2">
    <g id="ytick_1">
     <g id="line2d_7">
      <defs>
       <path d="M 0 0 
L -3.5 0 
" id="mb56a1e4324" style="stroke:#000000;stroke-width:0.8;"/>
      </defs>
      <g>
       <use style="stroke:#000000;stroke-width:0.8;" x="57.6" xlink:href="#mb56a1e4324" y="301.702398"/>
      </g>
     </g>
     <g id="text_8">
      <!-- 22 -->
      <g transform="translate(37.875 305.501617)scale(0.1 -0.1)">
       <use xlink:href="#DejaVuSans-50"/>
       <use x="63.623047" xlink:href="#DejaVuSans-50"/>
      </g>
     </g>
    </g>
    <g id="ytick_2">
     <g id="line2d_8">
      <g>
       <use style="stroke:#000000;stroke-width:0.8;" x="57.6" xlink:href="#mb56a1e4324" y="270.328371"/>
      </g>
     </g>
     <g id="text_9">
      <!-- 24 -->
      <g transform="translate(37.875 274.12759)scale(0.1 -0.1)">
       <use xlink:href="#DejaVuSans-50"/>
       <use x="63.623047" xlink:href="#DejaVuSans-52"/>
      </g>
     </g>
    </g>
    <g id="ytick_3">
     <g id="line2d_9">
      <g>
       <use style="stroke:#000000;stroke-width:0.8;" x="57.6" xlink:href="#mb56a1e4324" y="238.954345"/>
      </g>
     </g>
     <g id="text_10">
      <!-- 26 -->
      <defs>
       <path d="M 33.015625 40.375 
Q 26.375 40.375 22.484375 35.828125 
Q 18.609375 31.296875 18.609375 23.390625 
Q 18.609375 15.53125 22.484375 10.953125 
Q 26.375 6.390625 33.015625 6.390625 
Q 39.65625 6.390625 43.53125 10.953125 
Q 47.40625 15.53125 47.40625 23.390625 
Q 47.40625 31.296875 43.53125 35.828125 
Q 39.65625 40.375 33.015625 40.375 
z
M 52.59375 71.296875 
L 52.59375 62.3125 
Q 48.875 64.0625 45.09375 64.984375 
Q 41.3125 65.921875 37.59375 65.921875 
Q 27.828125 65.921875 22.671875 59.328125 
Q 17.53125 52.734375 16.796875 39.40625 
Q 19.671875 43.65625 24.015625 45.921875 
Q 28.375 48.1875 33.59375 48.1875 
Q 44.578125 48.1875 50.953125 41.515625 
Q 57.328125 34.859375 57.328125 23.390625 
Q 57.328125 12.15625 50.6875 5.359375 
Q 44.046875 -1.421875 33.015625 -1.421875 
Q 20.359375 -1.421875 13.671875 8.265625 
Q 6.984375 17.96875 6.984375 36.375 
Q 6.984375 53.65625 15.1875 63.9375 
Q 23.390625 74.21875 37.203125 74.21875 
Q 40.921875 74.21875 44.703125 73.484375 
Q 48.484375 72.75 52.59375 71.296875 
z
" id="DejaVuSans-54"/>
      </defs>
      <g transform="translate(37.875 242.753563)scale(0.1 -0.1)">
       <use xlink:href="#DejaVuSans-50"/>
       <use x="63.623047" xlink:href="#DejaVuSans-54"/>
      </g>
     </g>
    </g>
    <g id="ytick_4">
     <g id="line2d_10">
      <g>
       <use style="stroke:#000000;stroke-width:0.8;" x="57.6" xlink:href="#mb56a1e4324" y="207.580318"/>
      </g>
     </g>
     <g id="text_11">
      <!-- 28 -->
      <defs>
       <path d="M 31.78125 34.625 
Q 24.75 34.625 20.71875 30.859375 
Q 16.703125 27.09375 16.703125 20.515625 
Q 16.703125 13.921875 20.71875 10.15625 
Q 24.75 6.390625 31.78125 6.390625 
Q 38.8125 6.390625 42.859375 10.171875 
Q 46.921875 13.96875 46.921875 20.515625 
Q 46.921875 27.09375 42.890625 30.859375 
Q 38.875 34.625 31.78125 34.625 
z
M 21.921875 38.8125 
Q 15.578125 40.375 12.03125 44.71875 
Q 8.5 49.078125 8.5 55.328125 
Q 8.5 64.0625 14.71875 69.140625 
Q 20.953125 74.21875 31.78125 74.21875 
Q 42.671875 74.21875 48.875 69.140625 
Q 55.078125 64.0625 55.078125 55.328125 
Q 55.078125 49.078125 51.53125 44.71875 
Q 48 40.375 41.703125 38.8125 
Q 48.828125 37.15625 52.796875 32.3125 
Q 56.78125 27.484375 56.78125 20.515625 
Q 56.78125 9.90625 50.3125 4.234375 
Q 43.84375 -1.421875 31.78125 -1.421875 
Q 19.734375 -1.421875 13.25 4.234375 
Q 6.78125 9.90625 6.78125 20.515625 
Q 6.78125 27.484375 10.78125 32.3125 
Q 14.796875 37.15625 21.921875 38.8125 
z
M 18.3125 54.390625 
Q 18.3125 48.734375 21.84375 45.5625 
Q 25.390625 42.390625 31.78125 42.390625 
Q 38.140625 42.390625 41.71875 45.5625 
Q 45.3125 48.734375 45.3125 54.390625 
Q 45.3125 60.0625 41.71875 63.234375 
Q 38.140625 66.40625 31.78125 66.40625 
Q 25.390625 66.40625 21.84375 63.234375 
Q 18.3125 60.0625 18.3125 54.390625 
z
" id="DejaVuSans-56"/>
      </defs>
      <g transform="translate(37.875 211.379537)scale(0.1 -0.1)">
       <use xlink:href="#DejaVuSans-50"/>
       <use x="63.623047" xlink:href="#DejaVuSans-56"/>
      </g>
     </g>
    </g>
    <g id="ytick_5">
     <g id="line2d_11">
      <g>
       <use style="stroke:#000000;stroke-width:0.8;" x="57.6" xlink:href="#mb56a1e4324" y="176.206291"/>
      </g>
     </g>
     <g id="text_12">
      <!-- 30 -->
      <g transform="translate(37.875 180.00551)scale(0.1 -0.1)">
       <use xlink:href="#DejaVuSans-51"/>
       <use x="63.623047" xlink:href="#DejaVuSans-48"/>
      </g>
     </g>
    </g>
    <g id="ytick_6">
     <g id="line2d_12">
      <g>
       <use style="stroke:#000000;stroke-width:0.8;" x="57.6" xlink:href="#mb56a1e4324" y="144.832265"/>
      </g>
     </g>
     <g id="text_13">
      <!-- 32 -->
      <g transform="translate(37.875 148.631484)scale(0.1 -0.1)">
       <use xlink:href="#DejaVuSans-51"/>
       <use x="63.623047" xlink:href="#DejaVuSans-50"/>
      </g>
     </g>
    </g>
    <g id="ytick_7">
     <g id="line2d_13">
      <g>
       <use style="stroke:#000000;stroke-width:0.8;" x="57.6" xlink:href="#mb56a1e4324" y="113.458238"/>
      </g>
     </g>
     <g id="text_14">
      <!-- 34 -->
      <g transform="translate(37.875 117.257457)scale(0.1 -0.1)">
       <use xlink:href="#DejaVuSans-51"/>
       <use x="63.623047" xlink:href="#DejaVuSans-52"/>
      </g>
     </g>
    </g>
    <g id="ytick_8">
     <g id="line2d_14">
      <g>
       <use style="stroke:#000000;stroke-width:0.8;" x="57.6" xlink:href="#mb56a1e4324" y="82.084211"/>
      </g>
     </g>
     <g id="text_15">
      <!-- 36 -->
      <g transform="translate(37.875 85.88343)scale(0.1 -0.1)">
       <use xlink:href="#DejaVuSans-51"/>
       <use x="63.623047" xlink:href="#DejaVuSans-54"/>
      </g>
     </g>
    </g>
    <g id="ytick_9">
     <g id="line2d_15">
      <g>
       <use style="stroke:#000000;stroke-width:0.8;" x="57.6" xlink:href="#mb56a1e4324" y="50.710185"/>
      </g>
     </g>
     <g id="text_16">
      <!-- 38 -->
      <g transform="translate(37.875 54.509404)scale(0.1 -0.1)">
       <use xlink:href="#DejaVuSans-51"/>
       <use x="63.623047" xlink:href="#DejaVuSans-56"/>
      </g>
     </g>
    </g>
    <g id="text_17">
     <!-- Stock Price ($) -->
     <defs>
      <path d="M 53.515625 70.515625 
L 53.515625 60.890625 
Q 47.90625 63.578125 42.921875 64.890625 
Q 37.9375 66.21875 33.296875 66.21875 
Q 25.25 66.21875 20.875 63.09375 
Q 16.5 59.96875 16.5 54.203125 
Q 16.5 49.359375 19.40625 46.890625 
Q 22.3125 44.4375 30.421875 42.921875 
L 36.375 41.703125 
Q 47.40625 39.59375 52.65625 34.296875 
Q 57.90625 29 57.90625 20.125 
Q 57.90625 9.515625 50.796875 4.046875 
Q 43.703125 -1.421875 29.984375 -1.421875 
Q 24.8125 -1.421875 18.96875 -0.25 
Q 13.140625 0.921875 6.890625 3.21875 
L 6.890625 13.375 
Q 12.890625 10.015625 18.65625 8.296875 
Q 24.421875 6.59375 29.984375 6.59375 
Q 38.421875 6.59375 43.015625 9.90625 
Q 47.609375 13.234375 47.609375 19.390625 
Q 47.609375 24.75 44.3125 27.78125 
Q 41.015625 30.8125 33.5 32.328125 
L 27.484375 33.5 
Q 16.453125 35.6875 11.515625 40.375 
Q 6.59375 45.0625 6.59375 53.421875 
Q 6.59375 63.09375 13.40625 68.65625 
Q 20.21875 74.21875 32.171875 74.21875 
Q 37.3125 74.21875 42.625 73.28125 
Q 47.953125 72.359375 53.515625 70.515625 
z
" id="DejaVuSans-83"/>
      <path d="M 18.3125 70.21875 
L 18.3125 54.6875 
L 36.8125 54.6875 
L 36.8125 47.703125 
L 18.3125 47.703125 
L 18.3125 18.015625 
Q 18.3125 11.328125 20.140625 9.421875 
Q 21.96875 7.515625 27.59375 7.515625 
L 36.8125 7.515625 
L 36.8125 0 
L 27.59375 0 
Q 17.1875 0 13.234375 3.875 
Q 9.28125 7.765625 9.28125 18.015625 
L 9.28125 47.703125 
L 2.6875 47.703125 
L 2.6875 54.6875 
L 9.28125 54.6875 
L 9.28125 70.21875 
z
" id="DejaVuSans-116"/>
      <path d="M 30.609375 48.390625 
Q 23.390625 48.390625 19.1875 42.75 
Q 14.984375 37.109375 14.984375 27.296875 
Q 14.984375 17.484375 19.15625 11.84375 
Q 23.34375 6.203125 30.609375 6.203125 
Q 37.796875 6.203125 41.984375 11.859375 
Q 46.1875 17.53125 46.1875 27.296875 
Q 46.1875 37.015625 41.984375 42.703125 
Q 37.796875 48.390625 30.609375 48.390625 
z
M 30.609375 56 
Q 42.328125 56 49.015625 48.375 
Q 55.71875 40.765625 55.71875 27.296875 
Q 55.71875 13.875 49.015625 6.21875 
Q 42.328125 -1.421875 30.609375 -1.421875 
Q 18.84375 -1.421875 12.171875 6.21875 
Q 5.515625 13.875 5.515625 27.296875 
Q 5.515625 40.765625 12.171875 48.375 
Q 18.84375 56 30.609375 56 
z
" id="DejaVuSans-111"/>
      <path d="M 48.78125 52.59375 
L 48.78125 44.1875 
Q 44.96875 46.296875 41.140625 47.34375 
Q 37.3125 48.390625 33.40625 48.390625 
Q 24.65625 48.390625 19.8125 42.84375 
Q 14.984375 37.3125 14.984375 27.296875 
Q 14.984375 17.28125 19.8125 11.734375 
Q 24.65625 6.203125 33.40625 6.203125 
Q 37.3125 6.203125 41.140625 7.25 
Q 44.96875 8.296875 48.78125 10.40625 
L 48.78125 2.09375 
Q 45.015625 0.34375 40.984375 -0.53125 
Q 36.96875 -1.421875 32.421875 -1.421875 
Q 20.0625 -1.421875 12.78125 6.34375 
Q 5.515625 14.109375 5.515625 27.296875 
Q 5.515625 40.671875 12.859375 48.328125 
Q 20.21875 56 33.015625 56 
Q 37.15625 56 41.109375 55.140625 
Q 45.0625 54.296875 48.78125 52.59375 
z
" id="DejaVuSans-99"/>
      <path d="M 9.078125 75.984375 
L 18.109375 75.984375 
L 18.109375 31.109375 
L 44.921875 54.6875 
L 56.390625 54.6875 
L 27.390625 29.109375 
L 57.625 0 
L 45.90625 0 
L 18.109375 26.703125 
L 18.109375 0 
L 9.078125 0 
z
" id="DejaVuSans-107"/>
      <path d="M 19.671875 64.796875 
L 19.671875 37.40625 
L 32.078125 37.40625 
Q 38.96875 37.40625 42.71875 40.96875 
Q 46.484375 44.53125 46.484375 51.125 
Q 46.484375 57.671875 42.71875 61.234375 
Q 38.96875 64.796875 32.078125 64.796875 
z
M 9.8125 72.90625 
L 32.078125 72.90625 
Q 44.34375 72.90625 50.609375 67.359375 
Q 56.890625 61.8125 56.890625 51.125 
Q 56.890625 40.328125 50.609375 34.8125 
Q 44.34375 29.296875 32.078125 29.296875 
L 19.671875 29.296875 
L 19.671875 0 
L 9.8125 0 
z
" id="DejaVuSans-80"/>
      <path d="M 41.109375 46.296875 
Q 39.59375 47.171875 37.8125 47.578125 
Q 36.03125 48 33.890625 48 
Q 26.265625 48 22.1875 43.046875 
Q 18.109375 38.09375 18.109375 28.8125 
L 18.109375 0 
L 9.078125 0 
L 9.078125 54.6875 
L 18.109375 54.6875 
L 18.109375 46.1875 
Q 20.953125 51.171875 25.484375 53.578125 
Q 30.03125 56 36.53125 56 
Q 37.453125 56 38.578125 55.875 
Q 39.703125 55.765625 41.0625 55.515625 
z
" id="DejaVuSans-114"/>
      <path d="M 33.796875 -14.703125 
L 28.90625 -14.703125 
L 28.859375 0 
Q 23.734375 0.09375 18.609375 1.1875 
Q 13.484375 2.296875 8.296875 4.5 
L 8.296875 13.28125 
Q 13.28125 10.15625 18.375 8.5625 
Q 23.484375 6.984375 28.90625 6.9375 
L 28.90625 29.203125 
Q 18.109375 30.953125 13.203125 35.15625 
Q 8.296875 39.359375 8.296875 46.6875 
Q 8.296875 54.640625 13.625 59.21875 
Q 18.953125 63.8125 28.90625 64.5 
L 28.90625 75.984375 
L 33.796875 75.984375 
L 33.796875 64.65625 
Q 38.328125 64.453125 42.578125 63.6875 
Q 46.828125 62.9375 50.875 61.625 
L 50.875 53.078125 
Q 46.828125 55.125 42.546875 56.25 
Q 38.28125 57.375 33.796875 57.5625 
L 33.796875 36.71875 
Q 44.875 35.015625 50.09375 30.609375 
Q 55.328125 26.21875 55.328125 18.609375 
Q 55.328125 10.359375 49.78125 5.59375 
Q 44.234375 0.828125 33.796875 0.09375 
z
M 28.90625 37.59375 
L 28.90625 57.625 
Q 23.25 56.984375 20.265625 54.390625 
Q 17.28125 51.8125 17.28125 47.515625 
Q 17.28125 43.3125 20.03125 40.96875 
Q 22.796875 38.625 28.90625 37.59375 
z
M 33.796875 28.21875 
L 33.796875 7.078125 
Q 39.984375 7.90625 43.140625 10.59375 
Q 46.296875 13.28125 46.296875 17.671875 
Q 46.296875 21.96875 43.28125 24.5 
Q 40.28125 27.046875 33.796875 28.21875 
z
" id="DejaVuSans-36"/>
     </defs>
     <g transform="translate(31.795312 210.824875)rotate(-90)scale(0.1 -0.1)">
      <use xlink:href="#DejaVuSans-83"/>
      <use x="63.476562" xlink:href="#DejaVuSans-116"/>
      <use x="102.685547" xlink:href="#DejaVuSans-111"/>
      <use x="163.867188" xlink:href="#DejaVuSans-99"/>
      <use x="218.847656" xlink:href="#DejaVuSans-107"/>
      <use x="276.757812" xlink:href="#DejaVuSans-32"/>
      <use x="308.544922" xlink:href="#DejaVuSans-80"/>
      <use x="367.097656" xlink:href="#DejaVuSans-114"/>
      <use x="408.210938" xlink:href="#DejaVuSans-105"/>
      <use x="435.994141" xlink:href="#DejaVuSans-99"/>
      <use x="490.974609" xlink:href="#DejaVuSans-101"/>
      <use x="552.498047" xlink:href="#DejaVuSans-32"/>
      <use x="584.285156" xlink:href="#DejaVuSans-40"/>
      <use x="623.298828" xlink:href="#DejaVuSans-36"/>
      <use x="686.921875" xlink:href="#DejaVuSans-41"/>
     </g>
    </g>
   </g>
   <g id="line2d_16">
    <path clip-path="url(#p9e0ecc5b15)" d="M 73.832727 176.206291 
L 74.482036 172.310311 
L 75.131345 173.394788 
L 75.780655 168.314638 
L 76.429964 156.368743 
L 77.728582 160.041782 
L 78.377891 147.655216 
L 79.0272 141.635836 
L 79.676509 145.318162 
L 80.325818 141.062588 
L 81.624436 148.350362 
L 82.273745 146.45253 
L 83.572364 174.988761 
L 84.221673 179.399067 
L 84.870982 187.343214 
L 85.520291 184.878413 
L 86.1696 192.000506 
L 86.818909 203.07792 
L 87.468218 191.582094 
L 88.117527 193.352972 
L 88.766836 192.823314 
L 89.416145 203.998336 
L 90.065455 208.268205 
L 90.714764 207.398183 
L 91.364073 216.426009 
L 92.013382 213.479219 
L 92.662691 218.190333 
L 93.312 220.478234 
L 93.961309 225.197724 
L 94.610618 210.669368 
L 95.259927 210.775233 
L 95.909236 219.071396 
L 96.558545 212.61976 
L 97.207855 222.195455 
L 97.857164 220.557232 
L 98.506473 235.927918 
L 99.155782 246.345554 
L 99.805091 244.801471 
L 100.4544 239.009304 
L 101.103709 237.665176 
L 101.753018 238.572264 
L 102.402327 240.933973 
L 103.051636 252.53077 
L 103.700945 258.176872 
L 104.350255 261.789896 
L 104.999564 253.49835 
L 105.648873 250.803178 
L 106.298182 264.631595 
L 106.947491 262.089641 
L 107.5968 265.110036 
L 108.246109 270.419478 
L 108.895418 265.621791 
L 110.194036 250.230638 
L 110.843345 256.813046 
L 111.492655 259.238355 
L 112.141964 256.640088 
L 112.791273 248.988394 
L 113.440582 252.7468 
L 114.089891 254.203017 
L 115.388509 272.263018 
L 116.037818 265.889966 
L 116.687127 255.252288 
L 117.336436 255.8171 
L 117.985745 247.945883 
L 118.635055 245.109389 
L 119.284364 250.16939 
L 119.933673 247.334781 
L 120.582982 235.271181 
L 121.232291 235.552183 
L 121.8816 223.27989 
L 122.530909 243.827878 
L 123.180218 237.38128 
L 123.829527 236.698526 
L 124.478836 239.043792 
L 125.128145 238.324066 
L 125.777455 253.913576 
L 126.426764 255.636574 
L 127.076073 252.835559 
L 127.725382 241.243687 
L 128.374691 245.308743 
L 129.024 251.650168 
L 129.673309 255.585703 
L 130.322618 248.40574 
L 130.971927 245.827179 
L 131.621236 249.982356 
L 132.270545 245.95654 
L 132.919855 245.195111 
L 133.569164 237.597538 
L 134.218473 243.104096 
L 134.867782 245.674116 
L 135.517091 248.749619 
L 136.1664 260.228708 
L 137.465018 255.858498 
L 138.114327 255.818391 
L 138.763636 257.658377 
L 139.412945 268.759846 
L 140.062255 272.059181 
L 140.711564 274.747264 
L 141.360873 281.039932 
L 142.010182 282.304977 
L 142.659491 279.135801 
L 143.3088 264.34149 
L 143.958109 262.972188 
L 144.607418 260.952089 
L 145.256727 261.536006 
L 145.906036 276.585901 
L 146.555345 276.793863 
L 147.204655 276.321447 
L 147.853964 257.000991 
L 148.503273 258.509775 
L 149.152582 256.144587 
L 149.801891 256.416849 
L 150.4512 265.583383 
L 151.100509 256.619645 
L 152.399127 244.517388 
L 153.048436 251.650175 
L 153.697745 240.647348 
L 154.347055 251.642777 
L 154.996364 247.039759 
L 155.645673 229.858906 
L 156.294982 237.628184 
L 156.944291 242.069944 
L 157.5936 241.288328 
L 158.242909 245.237343 
L 158.892218 257.399982 
L 159.541527 256.862207 
L 160.190836 265.194394 
L 160.840145 261.479768 
L 161.489455 268.691278 
L 162.138764 256.534358 
L 162.788073 262.67781 
L 163.437382 265.203902 
L 164.086691 258.823074 
L 164.736 268.477366 
L 165.385309 266.693283 
L 166.034618 256.4407 
L 166.683927 269.049005 
L 167.333236 267.600828 
L 167.982545 265.562436 
L 168.631855 259.430203 
L 169.930473 279.489245 
L 170.579782 275.395392 
L 172.527709 268.38388 
L 173.177018 273.717658 
L 173.826327 271.895975 
L 174.475636 269.597259 
L 175.124945 275.200279 
L 175.774255 260.566064 
L 176.423564 256.849553 
L 177.072873 266.19355 
L 177.722182 261.043867 
L 178.371491 268.688789 
L 179.0208 262.515286 
L 179.670109 253.427834 
L 180.319418 259.864861 
L 180.968727 252.308614 
L 181.618036 249.070964 
L 182.267345 242.62313 
L 182.916655 227.745621 
L 183.565964 229.670324 
L 184.215273 235.582259 
L 185.513891 248.957985 
L 186.1632 249.562733 
L 186.812509 246.886905 
L 187.461818 244.716679 
L 188.111127 238.228661 
L 188.760436 238.126681 
L 189.409745 226.725877 
L 190.059055 228.801714 
L 190.708364 207.466049 
L 191.357673 202.558623 
L 192.006982 209.281744 
L 192.656291 217.681297 
L 193.3056 213.897021 
L 193.954909 215.649753 
L 194.604218 210.049485 
L 195.253527 206.337643 
L 195.902836 206.908877 
L 196.552145 213.550709 
L 197.201455 225.432423 
L 197.850764 228.934666 
L 198.500073 222.217497 
L 199.149382 220.538251 
L 199.798691 230.309212 
L 200.448 228.950866 
L 201.097309 225.928626 
L 201.746618 232.861168 
L 202.395927 231.655424 
L 203.045236 231.198864 
L 203.694545 240.163759 
L 204.343855 237.357451 
L 204.993164 232.958934 
L 206.291782 216.198511 
L 206.941091 227.00427 
L 207.5904 234.360107 
L 209.538327 222.250761 
L 210.187636 192.031836 
L 210.836945 187.554052 
L 212.135564 171.164516 
L 212.784873 166.055325 
L 213.434182 168.528141 
L 214.083491 162.575161 
L 214.7328 168.636821 
L 215.382109 170.494309 
L 216.031418 174.301261 
L 216.680727 173.659081 
L 217.330036 155.504041 
L 217.979345 170.149948 
L 218.628655 164.767262 
L 219.277964 177.416609 
L 219.927273 181.11821 
L 220.576582 172.577019 
L 221.225891 172.072838 
L 221.8752 180.526136 
L 222.524509 186.136626 
L 223.173818 180.806196 
L 223.823127 186.534832 
L 224.472436 184.837037 
L 225.121745 184.479594 
L 225.771055 189.590426 
L 226.420364 172.774386 
L 227.069673 167.802238 
L 227.718982 183.686458 
L 228.368291 182.224002 
L 229.0176 187.414729 
L 229.666909 180.728662 
L 230.316218 186.944804 
L 230.965527 187.84474 
L 231.614836 183.883869 
L 232.264145 177.093312 
L 232.913455 186.507845 
L 233.562764 189.131508 
L 234.212073 192.856744 
L 234.861382 197.981136 
L 235.510691 184.133784 
L 236.16 180.957308 
L 236.809309 190.847059 
L 237.458618 183.647803 
L 238.107927 167.002657 
L 238.757236 158.904509 
L 239.406545 170.821697 
L 240.055855 174.61979 
L 240.705164 164.682764 
L 241.354473 170.233374 
L 242.003782 166.752274 
L 242.653091 160.676426 
L 243.3024 167.946812 
L 243.951709 168.413699 
L 244.601018 193.836601 
L 245.250327 201.871392 
L 245.899636 203.852412 
L 246.548945 213.639408 
L 247.198255 200.835579 
L 247.847564 212.052903 
L 248.496873 215.504394 
L 249.146182 214.47893 
L 249.795491 203.174293 
L 250.4448 214.436488 
L 251.094109 205.313205 
L 251.743418 205.232942 
L 252.392727 212.931412 
L 253.042036 209.3069 
L 253.691345 207.745574 
L 254.340655 212.453379 
L 254.989964 211.905886 
L 255.639273 214.928096 
L 256.288582 214.037721 
L 256.937891 208.844295 
L 257.5872 196.404362 
L 258.236509 206.113176 
L 258.885818 189.382714 
L 259.535127 204.693928 
L 260.184436 205.884455 
L 260.833745 201.269985 
L 261.483055 199.066024 
L 262.132364 203.950172 
L 262.781673 205.58258 
L 263.430982 209.449436 
L 264.080291 214.072122 
L 264.7296 207.408263 
L 265.378909 204.608009 
L 266.028218 210.04285 
L 266.677527 202.986833 
L 267.326836 200.576527 
L 267.976145 194.200837 
L 268.625455 189.262339 
L 269.274764 195.764567 
L 269.924073 200.158351 
L 270.573382 194.296949 
L 271.222691 189.509505 
L 271.872 189.673447 
L 272.521309 188.753189 
L 273.170618 178.731816 
L 273.819927 183.37181 
L 274.469236 179.080648 
L 275.767855 182.373932 
L 276.417164 173.755668 
L 277.715782 160.900741 
L 278.365091 150.661209 
L 279.0144 150.496466 
L 279.663709 145.147563 
L 280.313018 147.581142 
L 280.962327 145.038541 
L 281.611636 146.059319 
L 282.260945 145.298531 
L 282.910255 140.630413 
L 283.559564 147.048132 
L 284.208873 130.636479 
L 284.858182 138.527183 
L 285.507491 148.050679 
L 286.1568 138.967029 
L 286.806109 132.757617 
L 288.104727 122.933897 
L 288.754036 123.029955 
L 289.403345 130.067575 
L 290.052655 129.473002 
L 290.701964 134.784324 
L 291.351273 127.135966 
L 292.000582 128.289412 
L 292.649891 134.764204 
L 293.2992 137.284996 
L 293.948509 134.046166 
L 294.597818 138.467743 
L 295.247127 144.916834 
L 296.545745 141.084075 
L 297.844364 148.754879 
L 298.493673 146.934794 
L 299.792291 169.332305 
L 300.4416 174.967427 
L 301.090909 176.641601 
L 301.740218 174.202995 
L 302.389527 162.631029 
L 303.038836 155.90397 
L 303.688145 157.158449 
L 304.337455 157.307603 
L 304.986764 165.170948 
L 305.636073 165.316156 
L 306.285382 167.580252 
L 306.934691 165.049007 
L 307.584 171.537398 
L 308.233309 167.463901 
L 308.882618 155.441853 
L 309.531927 156.294914 
L 310.181236 153.144085 
L 310.830545 147.730936 
L 311.479855 150.877912 
L 312.129164 149.120241 
L 312.778473 149.021472 
L 313.427782 148.255349 
L 314.077091 154.318456 
L 314.7264 154.126211 
L 315.375709 150.220158 
L 316.025018 138.838103 
L 316.674327 131.314056 
L 317.323636 114.425555 
L 317.972945 120.444251 
L 318.622255 113.602198 
L 319.271564 112.164154 
L 319.920873 94.98842 
L 321.219491 107.914677 
L 321.8688 112.616017 
L 322.518109 129.274807 
L 323.167418 133.39857 
L 323.816727 139.352832 
L 324.466036 138.173218 
L 325.115345 135.492652 
L 325.764655 120.776894 
L 326.413964 113.322238 
L 327.063273 117.847186 
L 327.712582 124.893907 
L 328.361891 121.035536 
L 329.0112 131.390794 
L 329.660509 117.025735 
L 330.309818 107.774789 
L 330.959127 111.454771 
L 331.608436 124.891753 
L 332.257745 114.272646 
L 332.907055 115.17104 
L 333.556364 105.46222 
L 334.205673 117.968124 
L 334.854982 122.669326 
L 335.504291 122.628197 
L 336.1536 122.259704 
L 336.802909 125.789795 
L 337.452218 120.904468 
L 338.101527 129.278356 
L 338.750836 130.39511 
L 339.400145 129.451571 
L 340.049455 125.416566 
L 340.698764 119.83501 
L 341.348073 128.656148 
L 341.997382 140.688983 
L 342.646691 130.667516 
L 343.296 128.061009 
L 343.945309 133.931768 
L 344.594618 121.765297 
L 345.243927 120.858002 
L 345.893236 111.608177 
L 346.542545 111.078595 
L 347.841164 81.147078 
L 348.490473 83.09983 
L 349.139782 75.479306 
L 349.789091 70.417296 
L 350.4384 59.682425 
L 351.087709 67.250809 
L 351.737018 61.86976 
L 352.386327 53.568 
L 353.035636 67.362685 
L 353.684945 76.643581 
L 354.334255 92.638312 
L 354.983564 94.751406 
L 355.632873 89.123359 
L 356.282182 77.339611 
L 356.931491 76.758448 
L 357.5808 63.984392 
L 358.230109 74.809227 
L 358.879418 88.169718 
L 359.528727 88.605407 
L 360.178036 85.592987 
L 360.827345 85.849428 
L 361.476655 102.065424 
L 362.125964 102.764438 
L 362.775273 112.996053 
L 363.424582 107.743472 
L 364.073891 104.868056 
L 364.7232 112.24001 
L 365.372509 116.270528 
L 366.021818 124.578477 
L 366.671127 125.0701 
L 367.320436 117.578435 
L 367.969745 125.309984 
L 368.619055 121.356492 
L 369.268364 125.515571 
L 369.917673 131.734474 
L 370.566982 132.573968 
L 371.216291 140.693898 
L 371.8656 145.03645 
L 372.514909 154.432013 
L 373.164218 139.021678 
L 373.813527 138.745088 
L 374.462836 144.23339 
L 375.112145 142.555037 
L 375.761455 143.436083 
L 376.410764 145.16926 
L 377.060073 140.352039 
L 377.709382 134.410522 
L 379.008 143.087946 
L 379.657309 145.245316 
L 380.306618 163.30045 
L 380.955927 175.184861 
L 381.605236 164.463773 
L 382.254545 151.561458 
L 382.903855 153.514774 
L 383.553164 148.992546 
L 384.202473 146.551253 
L 384.851782 122.402031 
L 385.501091 113.620637 
L 386.1504 114.62396 
L 386.799709 122.118748 
L 387.449018 134.71892 
L 388.098327 133.123052 
L 388.747636 139.055494 
L 389.396945 150.21095 
L 390.046255 155.282349 
L 390.695564 163.765478 
L 391.344873 150.532371 
L 391.994182 143.617224 
L 392.643491 143.679758 
L 393.2928 132.071806 
L 393.942109 131.464967 
L 394.591418 138.220455 
L 395.240727 126.273822 
L 395.890036 122.046877 
L 396.539345 130.182524 
L 397.188655 131.675447 
L 397.837964 138.543364 
L 398.487273 149.389363 
L 398.487273 149.389363 
" style="fill:none;stroke:#1f77b4;stroke-linecap:square;stroke-width:1.5;"/>
   </g>
   <g id="line2d_17">
    <path clip-path="url(#p9e0ecc5b15)" d="M 73.832727 176.206291 
L 74.482036 172.310311 
L 75.131345 173.394788 
L 75.780655 168.314638 
L 76.429964 156.368743 
L 77.728582 160.041782 
L 78.377891 147.655216 
L 79.0272 141.635836 
L 79.676509 145.318162 
L 80.325818 141.062588 
L 81.624436 148.350362 
L 82.273745 146.45253 
L 83.572364 174.988761 
L 84.221673 179.399067 
L 84.870982 187.343214 
L 85.520291 184.878413 
L 86.1696 192.000506 
L 86.818909 203.07792 
L 87.468218 191.582094 
L 88.117527 193.352972 
L 88.766836 192.823314 
L 89.416145 203.998336 
L 90.065455 208.268205 
L 90.714764 207.398183 
L 91.364073 216.426009 
L 92.013382 213.479219 
L 92.662691 218.190333 
L 93.312 220.478234 
L 93.961309 225.197724 
L 94.610618 210.669368 
L 95.259927 210.775233 
L 95.909236 219.071396 
L 96.558545 212.61976 
L 97.207855 222.195455 
L 97.857164 220.557232 
L 98.506473 235.927918 
L 99.155782 246.345554 
L 99.805091 244.801471 
L 100.4544 239.009304 
L 101.103709 237.665176 
L 101.753018 238.572264 
L 102.402327 240.933973 
L 103.051636 252.53077 
L 103.700945 258.176872 
L 104.350255 261.789896 
L 104.999564 253.49835 
L 105.648873 250.803178 
L 106.298182 264.631595 
L 106.947491 262.089641 
L 107.5968 265.110036 
L 108.246109 270.419478 
L 108.895418 265.621791 
L 110.194036 250.230638 
L 110.843345 256.813046 
L 111.492655 259.238355 
L 112.141964 256.640088 
L 112.791273 248.988394 
L 113.440582 252.7468 
L 114.089891 254.203017 
L 115.388509 272.263018 
L 116.037818 265.889966 
L 116.687127 255.252288 
L 117.336436 255.8171 
L 117.985745 247.945883 
L 118.635055 245.109389 
L 119.284364 250.16939 
L 119.933673 247.334781 
L 120.582982 235.271181 
L 121.232291 235.552183 
L 121.8816 223.27989 
L 122.530909 243.827878 
L 123.180218 237.38128 
L 123.829527 236.698526 
L 124.478836 239.043792 
L 125.128145 238.324066 
L 125.777455 253.913576 
L 126.426764 255.636574 
L 127.076073 252.835559 
L 127.725382 241.243687 
L 128.374691 245.308743 
L 129.024 251.650168 
L 129.673309 255.585703 
L 130.322618 248.40574 
L 130.971927 245.827179 
L 131.621236 249.982356 
L 132.270545 245.95654 
L 132.919855 245.195111 
L 133.569164 237.597538 
L 134.218473 243.104096 
L 134.867782 245.674116 
L 135.517091 248.749619 
L 136.1664 260.228708 
L 137.465018 255.858498 
L 138.114327 255.818391 
L 138.763636 257.658377 
L 139.412945 268.759846 
L 140.062255 272.059181 
L 140.711564 274.747264 
L 141.360873 281.039932 
L 142.010182 282.304977 
L 142.659491 279.135801 
L 143.3088 264.34149 
L 143.958109 262.972188 
L 144.607418 260.952089 
L 145.256727 261.536006 
L 145.906036 276.585901 
L 146.555345 276.793863 
L 147.204655 276.321447 
L 147.853964 257.000991 
L 148.503273 258.509775 
L 149.152582 256.144587 
L 149.801891 256.416849 
L 150.4512 265.583383 
L 151.100509 256.619645 
L 152.399127 244.517388 
L 153.048436 251.650175 
L 153.697745 240.647348 
L 154.347055 251.642777 
L 154.996364 247.039759 
L 155.645673 229.858906 
L 156.294982 237.628184 
L 156.944291 242.069944 
L 157.5936 241.288328 
L 158.242909 245.237343 
L 158.892218 257.399982 
L 159.541527 256.862207 
L 160.190836 265.194394 
L 160.840145 261.479768 
L 161.489455 268.691278 
L 162.138764 256.534358 
L 162.788073 262.67781 
L 163.437382 265.203902 
L 164.086691 258.823074 
L 164.736 268.477366 
L 165.385309 266.693283 
L 166.034618 256.4407 
L 166.683927 269.049005 
L 167.333236 267.600828 
L 167.982545 265.562436 
L 168.631855 259.430203 
L 169.930473 279.489245 
L 170.579782 275.395392 
L 172.527709 268.38388 
L 173.177018 273.717658 
L 173.826327 271.895975 
L 174.475636 269.597259 
L 175.124945 275.200279 
L 175.774255 260.566064 
L 176.423564 256.849553 
L 177.072873 266.19355 
L 177.722182 261.043867 
L 178.371491 268.688789 
L 179.0208 262.515286 
L 179.670109 253.427834 
L 180.319418 259.864861 
L 180.968727 252.308614 
L 181.618036 249.070964 
L 182.267345 242.62313 
L 182.916655 227.745621 
L 183.565964 229.670324 
L 184.215273 235.582259 
L 185.513891 248.957985 
L 186.1632 249.562733 
L 186.812509 246.886905 
L 187.461818 244.716679 
L 188.111127 238.228661 
L 188.760436 238.126681 
L 189.409745 226.725877 
L 190.059055 228.801714 
L 190.708364 207.466049 
L 191.357673 202.558623 
L 192.006982 209.281744 
L 192.656291 217.681297 
L 193.3056 213.897021 
L 193.954909 215.649753 
L 194.604218 210.049485 
L 195.253527 206.337643 
L 195.902836 206.908877 
L 196.552145 213.550709 
L 197.201455 225.432423 
L 197.850764 228.934666 
L 198.500073 222.217497 
L 199.149382 220.538251 
L 199.798691 230.309212 
L 200.448 228.950866 
L 201.097309 225.928626 
L 201.746618 232.861168 
L 202.395927 231.655424 
L 203.045236 231.198864 
L 203.694545 240.163759 
L 204.343855 237.357451 
L 204.993164 232.958934 
L 206.291782 216.198511 
L 206.941091 227.00427 
L 207.5904 234.360107 
L 209.538327 222.250761 
L 210.187636 192.031836 
L 210.836945 187.554052 
L 212.135564 171.164516 
L 212.784873 166.055325 
L 213.434182 168.528141 
L 214.083491 162.575161 
L 214.7328 168.636821 
L 215.382109 170.494309 
L 216.031418 174.301261 
L 216.680727 173.659081 
L 217.330036 155.504041 
L 217.979345 170.149948 
L 218.628655 164.767262 
L 219.277964 177.416609 
L 219.927273 181.11821 
L 220.576582 172.577019 
L 221.225891 172.072838 
L 221.8752 180.526136 
L 222.524509 186.136626 
L 223.173818 180.806196 
L 223.823127 186.534832 
L 224.472436 184.837037 
L 225.121745 184.479594 
L 225.771055 189.590426 
L 226.420364 172.774386 
L 227.069673 167.802238 
L 227.718982 183.686458 
L 228.368291 182.224002 
L 229.0176 187.414729 
L 229.666909 180.728662 
L 230.316218 186.944804 
L 230.965527 187.84474 
L 231.614836 183.883869 
L 232.264145 177.093312 
L 232.913455 186.507845 
L 233.562764 189.131508 
L 234.212073 192.856744 
L 234.861382 197.981136 
L 235.510691 184.133784 
L 236.16 180.957308 
L 236.809309 190.847059 
L 237.458618 183.647803 
L 238.107927 167.002657 
L 238.757236 158.904509 
L 239.406545 170.821697 
L 240.055855 174.61979 
L 240.705164 164.682764 
L 241.354473 170.233374 
L 242.003782 166.752274 
L 242.653091 160.676426 
L 243.3024 167.946812 
L 243.951709 168.413699 
L 244.601018 193.836601 
L 245.250327 201.871392 
L 245.899636 203.852412 
L 246.548945 213.639408 
L 247.198255 200.835579 
L 247.847564 212.052903 
L 248.496873 215.504394 
L 249.146182 214.47893 
L 249.795491 203.174293 
L 250.4448 214.436488 
L 251.094109 205.313205 
L 251.743418 205.232942 
L 252.392727 212.931412 
L 253.042036 209.3069 
L 253.691345 207.745574 
L 254.340655 212.453379 
L 254.989964 211.905886 
L 255.639273 214.928096 
L 256.288582 214.037721 
L 256.937891 208.844295 
L 257.5872 196.404362 
L 258.236509 206.113176 
L 258.885818 189.382714 
L 259.535127 204.693928 
L 260.184436 205.884455 
L 260.833745 201.269985 
L 261.483055 199.066024 
L 262.132364 203.950172 
L 262.781673 205.58258 
L 263.430982 209.449436 
L 264.080291 214.072122 
L 264.7296 207.408263 
L 265.378909 204.608009 
L 266.028218 210.04285 
L 266.677527 202.986833 
L 267.326836 200.576527 
L 267.976145 194.200837 
L 268.625455 189.262339 
L 269.274764 195.764567 
L 269.924073 200.158351 
L 270.573382 194.296949 
L 271.222691 189.509505 
L 271.872 189.673447 
L 272.521309 188.753189 
L 273.170618 178.731816 
L 273.819927 183.37181 
L 274.469236 179.080648 
L 275.767855 182.373932 
L 276.417164 173.755668 
L 277.715782 160.900741 
L 278.365091 150.661209 
L 279.0144 150.496466 
L 279.663709 145.147563 
L 280.313018 147.581142 
L 280.962327 145.038541 
L 281.611636 146.059319 
L 282.260945 145.298531 
L 282.910255 140.630413 
L 283.559564 147.048132 
L 284.208873 130.636479 
L 284.858182 138.527183 
L 285.507491 148.050679 
L 286.1568 138.967029 
L 286.806109 132.757617 
L 288.104727 122.933897 
L 288.754036 123.029955 
L 289.403345 130.067575 
L 290.052655 129.473002 
L 290.701964 134.784324 
L 291.351273 127.135966 
L 292.000582 128.289412 
L 292.649891 134.764204 
L 293.2992 137.284996 
L 293.948509 134.046166 
L 294.597818 138.467743 
L 295.247127 144.916834 
L 296.545745 141.084075 
L 297.844364 148.754879 
L 298.493673 146.934794 
L 299.792291 169.332305 
L 300.4416 174.967427 
L 301.090909 176.641601 
L 301.740218 174.202995 
L 302.389527 162.631029 
L 303.038836 155.90397 
L 303.688145 157.158449 
L 304.337455 157.307603 
L 304.986764 165.170948 
L 305.636073 165.316156 
L 306.285382 167.580252 
L 306.934691 165.049007 
L 307.584 171.537398 
L 308.233309 167.463901 
L 308.882618 155.441853 
L 309.531927 156.294914 
L 310.181236 153.144085 
L 310.830545 147.730936 
L 311.479855 150.877912 
L 312.129164 149.120241 
L 312.778473 149.021472 
L 313.427782 148.255349 
L 314.077091 154.318456 
L 314.7264 154.126211 
L 315.375709 150.220158 
L 316.025018 138.838103 
L 316.674327 131.314056 
L 317.323636 114.425555 
L 317.972945 120.444251 
L 318.622255 113.602198 
L 319.271564 112.164154 
L 319.920873 94.98842 
L 321.219491 107.914677 
L 321.8688 112.616017 
L 322.518109 129.274807 
L 323.167418 133.39857 
L 323.816727 139.352832 
L 324.466036 138.173218 
L 325.115345 135.492652 
L 325.764655 120.776894 
L 326.413964 113.322238 
L 327.063273 117.847186 
L 327.712582 124.893907 
L 328.361891 121.035536 
L 329.0112 131.390794 
L 329.660509 117.025735 
L 330.309818 107.774789 
L 330.959127 111.454771 
L 331.608436 124.891753 
L 332.257745 114.272646 
L 332.907055 115.17104 
L 333.556364 105.46222 
L 334.205673 117.968124 
L 334.854982 122.669326 
L 335.504291 122.628197 
L 336.1536 122.259704 
L 336.802909 125.789795 
L 337.452218 120.904468 
L 338.101527 129.278356 
L 338.750836 130.39511 
L 339.400145 129.451571 
L 340.049455 125.416566 
L 340.698764 119.83501 
L 341.348073 128.656148 
L 341.997382 140.688983 
L 342.646691 130.667516 
L 343.296 128.061009 
L 343.945309 133.931768 
L 344.594618 121.765297 
L 345.243927 120.858002 
L 345.893236 111.608177 
L 346.542545 111.078595 
L 347.841164 81.147078 
L 348.490473 83.09983 
L 349.139782 75.479306 
L 349.789091 70.417296 
L 350.4384 59.682425 
L 351.087709 67.250809 
L 351.737018 61.86976 
L 352.386327 53.568 
L 353.035636 67.362685 
L 353.684945 76.643581 
L 354.334255 92.638312 
L 354.983564 94.751406 
L 355.632873 89.123359 
L 356.282182 77.339611 
L 356.931491 76.758448 
L 357.5808 63.984392 
L 358.230109 74.809227 
L 358.879418 88.169718 
L 359.528727 88.605407 
L 360.178036 85.592987 
L 360.827345 85.849428 
L 361.476655 102.065424 
L 362.125964 102.764438 
L 362.775273 112.996053 
L 363.424582 107.743472 
L 364.073891 104.868056 
L 364.7232 112.24001 
L 365.372509 116.270528 
L 366.021818 124.578477 
L 366.671127 125.0701 
L 367.320436 117.578435 
L 367.969745 125.309984 
L 368.619055 121.356492 
L 369.268364 125.515571 
L 369.917673 131.734474 
L 370.566982 132.573968 
L 371.216291 140.693898 
L 371.8656 145.03645 
L 372.514909 154.432013 
L 373.164218 139.021678 
L 373.813527 138.745088 
L 374.462836 144.23339 
L 375.112145 142.555037 
L 375.761455 143.436083 
L 376.410764 145.16926 
L 377.060073 140.352039 
L 377.709382 134.410522 
L 379.008 143.087946 
L 379.657309 145.245316 
L 380.306618 163.30045 
L 380.955927 175.184861 
L 381.605236 164.463773 
L 382.254545 151.561458 
L 382.903855 153.514774 
L 383.553164 148.992546 
L 384.202473 146.551253 
L 384.851782 122.402031 
L 385.501091 113.620637 
L 386.1504 114.62396 
L 386.799709 122.118748 
L 387.449018 134.71892 
L 388.098327 133.123052 
L 388.747636 139.055494 
L 389.396945 150.21095 
L 390.046255 155.282349 
L 390.695564 163.765478 
L 391.344873 150.532371 
L 391.994182 143.617224 
L 392.643491 143.679758 
L 393.2928 132.071806 
L 393.942109 131.464967 
L 394.591418 138.220455 
L 395.240727 126.273822 
L 395.890036 122.046877 
L 396.539345 130.182524 
L 397.188655 131.675447 
L 397.837964 138.543364 
L 398.487273 149.389363 
L 398.487273 149.389363 
" style="fill:none;stroke:#1f77b4;stroke-linecap:square;stroke-width:1.5;"/>
   </g>
   <g id="line2d_18">
    <path clip-path="url(#p9e0ecc5b15)" d="M 73.832727 261.272786 
L 398.487273 112.62408 
L 398.487273 112.62408 
" style="fill:none;stroke:#ff0000;stroke-linecap:square;stroke-width:1.5;"/>
   </g>
   <g id="line2d_19">
    <path clip-path="url(#p9e0ecc5b15)" d="M 73.832727 227.057572 
L 398.487273 78.408866 
L 398.487273 78.408866 
" style="fill:none;stroke:#008000;stroke-linecap:square;stroke-width:1.5;"/>
   </g>
   <g id="line2d_20">
    <path clip-path="url(#p9e0ecc5b15)" d="M 73.832727 295.488 
L 398.487273 146.839294 
L 398.487273 146.839294 
" style="fill:none;stroke:#bf00bf;stroke-linecap:square;stroke-width:1.5;"/>
   </g>
   <g id="patch_3">
    <path d="M 57.6 307.584 
L 57.6 41.472 
" style="fill:none;stroke:#000000;stroke-linecap:square;stroke-linejoin:miter;stroke-width:0.8;"/>
   </g>
   <g id="patch_4">
    <path d="M 414.72 307.584 
L 414.72 41.472 
" style="fill:none;stroke:#000000;stroke-linecap:square;stroke-linejoin:miter;stroke-width:0.8;"/>
   </g>
   <g id="patch_5">
    <path d="M 57.6 307.584 
L 414.72 307.584 
" style="fill:none;stroke:#000000;stroke-linecap:square;stroke-linejoin:miter;stroke-width:0.8;"/>
   </g>
   <g id="patch_6">
    <path d="M 57.6 41.472 
L 414.72 41.472 
" style="fill:none;stroke:#000000;stroke-linecap:square;stroke-linejoin:miter;stroke-width:0.8;"/>
   </g>
  </g>
 </g>
 <defs>
  <clipPath id="p9e0ecc5b15">
   <rect height="266.112" width="357.12" x="57.6" y="41.472"/>
  </clipPath>
 </defs>
</svg>
